<?xml version="1.0" standalone="no"?>
<!DOCTYPE svg PUBLIC "-//W3C//DTD SVG 20010904//EN"
 "http://www.w3.org/TR/2001/REC-SVG-20010904/DTD/svg10.dtd">
<svg version="1.0" xmlns="http://www.w3.org/2000/svg"
 width="1024.000000pt" height="1024.000000pt" viewBox="0 0 1024.000000 1024.000000"
 preserveAspectRatio="xMidYMid meet">
<metadata>
Created by potrace 1.14, written by Peter Selinger 2001-2017
</metadata>
<g transform="translate(0.000000,1024.000000) scale(0.100000,-0.100000)"
fill="#000000" stroke="none">
<path d="M4267 10205 c-32 -19 -60 -35 -62 -35 -3 0 -29 -16 -60 -35 -30 -20
-55 -32 -55 -28 0 4 -4 3 -8 -3 -4 -6 -34 -26 -67 -44 -33 -18 -67 -38 -75
-44 -8 -7 -28 -18 -45 -26 -16 -8 -34 -19 -40 -23 -10 -8 -309 -182 -334 -194
-8 -3 -63 -35 -123 -70 -60 -35 -113 -63 -118 -63 -4 0 -10 -3 -12 -7 -4 -10
-76 -52 -100 -60 -10 -3 -18 -9 -18 -14 0 -5 -5 -9 -11 -9 -6 0 -24 -9 -40
-21 -16 -11 -29 -17 -29 -12 0 4 -4 3 -8 -3 -4 -6 -32 -24 -62 -41 -30 -17
-122 -70 -205 -118 -165 -96 -162 -95 -320 -185 -60 -34 -123 -71 -140 -81
-16 -10 -37 -22 -45 -26 -8 -3 -31 -16 -50 -28 -19 -12 -56 -33 -81 -47 -83
-46 -94 -53 -99 -59 -3 -3 -27 -16 -53 -30 -26 -13 -57 -28 -67 -34 -11 -5
-20 -13 -20 -17 0 -5 -4 -8 -8 -8 -5 0 -107 -57 -228 -126 -120 -70 -232 -134
-249 -143 -16 -9 -32 -18 -35 -21 -3 -3 -16 -11 -29 -18 -13 -8 -40 -23 -60
-35 -20 -11 -54 -30 -77 -43 -41 -22 -103 -58 -139 -82 -11 -6 -27 -15 -35
-19 -8 -4 -62 -34 -120 -68 -58 -34 -141 -83 -185 -108 -44 -25 -100 -59 -125
-74 -25 -15 -47 -27 -50 -28 -3 0 -26 -13 -52 -28 l-48 -28 0 -3924 0 -3925
2566 0 2567 0 76 42 c42 23 78 44 81 47 5 6 53 33 125 70 16 9 32 18 35 21 6
7 130 80 135 80 3 0 38 20 78 45 41 25 80 45 86 45 6 0 11 5 11 10 0 6 5 10
10 10 6 0 43 20 83 44 39 24 92 54 117 68 25 14 110 63 190 110 80 46 152 87
160 91 8 5 32 18 52 30 121 72 220 127 227 127 5 0 11 3 13 8 3 7 61 41 298
177 36 20 71 41 78 47 6 6 12 7 12 2 0 -5 4 -4 8 2 8 12 600 354 613 354 5 0
9 5 9 11 0 5 4 8 9 4 6 -3 14 3 20 12 6 10 11 14 11 9 0 -5 6 -4 13 2 6 6 84
52 172 103 88 51 178 103 200 116 22 12 49 27 60 33 11 6 34 18 50 28 17 10
50 30 75 44 25 14 72 41 105 61 33 19 64 35 69 35 5 0 12 4 15 9 3 5 101 64
216 130 116 66 226 130 245 142 19 11 47 26 62 32 14 6 28 16 30 22 3 7 4
1774 4 3927 l-1 3915 -2570 2 -2570 3 -58 -35z m3909 -1306 c0 -31 4 -63 7
-72 4 -10 2 -17 -2 -17 -11 0 -9 -19 2 -37 5 -7 5 -13 0 -13 -10 0 -9 -52 1
-68 4 -7 4 -12 -1 -12 -4 0 -8 -18 -8 -40 0 -22 4 -40 8 -40 5 0 5 -5 1 -11
-8 -14 -9 -233 0 -248 4 -6 4 -11 -1 -11 -4 0 -8 -299 -8 -665 0 -366 4 -665
8 -665 5 0 5 -5 1 -11 -8 -14 -9 -233 0 -248 4 -6 3 -11 -3 -11 -10 0 -9 -19
2 -37 5 -7 5 -13 0 -13 -10 0 -9 -52 1 -68 4 -7 4 -12 -1 -12 -4 0 -8 -18 -8
-40 0 -22 4 -40 8 -40 5 0 5 -5 1 -11 -8 -14 -9 -233 0 -248 4 -6 3 -11 -3
-11 -10 0 -9 -19 2 -37 5 -7 5 -13 0 -13 -10 0 -9 -52 1 -68 4 -7 4 -12 -1
-12 -4 0 -8 -18 -8 -40 0 -22 4 -40 8 -40 5 0 5 -5 1 -11 -8 -14 -9 -233 0
-248 4 -6 4 -11 -1 -11 -4 0 -8 -299 -8 -665 0 -366 4 -665 8 -665 5 0 5 -5 1
-11 -8 -14 -9 -233 0 -248 4 -6 3 -11 -3 -11 -10 0 -9 -19 2 -37 5 -7 5 -13 0
-13 -10 0 -9 -52 1 -68 4 -7 4 -12 -1 -12 -4 0 -8 -18 -8 -40 0 -22 4 -40 8
-40 5 0 5 -5 1 -11 -8 -14 -9 -233 0 -248 4 -6 3 -11 -3 -11 -10 0 -9 -19 2
-37 5 -7 5 -13 0 -13 -10 0 -9 -52 1 -68 4 -7 4 -12 -1 -12 -4 0 -8 -18 -8
-40 0 -22 4 -40 8 -40 5 0 5 -5 1 -11 -8 -14 -9 -233 0 -248 4 -6 2 -11 -4
-11 -6 0 -8 -10 -4 -25 3 -14 2 -25 -4 -25 -13 0 -176 -92 -180 -102 -2 -4 -8
-8 -14 -8 -6 0 -44 -20 -84 -45 -41 -24 -74 -41 -74 -37 0 4 -4 2 -8 -4 -4 -6
-27 -22 -52 -36 -25 -14 -83 -48 -130 -75 -74 -43 -89 -48 -110 -39 -14 6 -27
13 -30 17 -3 3 -10 8 -15 10 -6 2 -92 50 -190 107 -202 116 -183 105 -287 167
-42 25 -81 45 -87 45 -6 0 -11 12 -12 28 -5 276 -2 1072 4 1072 5 0 5 5 2 11
-10 15 -12 629 -2 629 5 0 5 5 2 11 -10 15 -12 629 -2 629 5 0 5 5 2 11 -10
15 -12 629 -2 629 5 0 5 5 2 11 -10 15 -12 1109 -2 1109 5 0 5 5 1 11 -3 6 -7
90 -8 187 l-1 177 -630 1 c-346 0 -635 -2 -642 -4 -8 -2 -11 -234 -11 -910 l0
-907 -641 -3 -641 -2 0 1548 c0 852 2 1551 4 1553 2 2 868 4 1923 4 l1918 -1
1 -55z m-5729 -1311 c21 -12 46 -28 56 -36 9 -8 17 -11 17 -7 0 4 8 1 18 -7 9
-8 37 -26 62 -39 25 -13 47 -26 50 -29 3 -3 25 -16 50 -29 25 -13 50 -28 57
-33 7 -5 28 -18 48 -29 19 -10 51 -28 70 -38 20 -11 41 -24 48 -29 7 -5 36
-22 65 -37 28 -15 53 -32 53 -39 1 -6 3 -1014 4 -2241 1 -1227 3 -2237 4
-2245 1 -13 77 -15 629 -13 345 0 633 2 640 2 9 1 12 191 12 915 l0 915 28 -9
c16 -4 36 -4 45 2 11 6 17 5 17 -2 0 -6 5 -8 11 -4 15 9 147 11 161 3 6 -4 25
-3 43 1 18 4 40 3 49 -2 9 -5 16 -5 16 -1 0 10 123 8 140 -2 7 -5 11 -4 7 1
-6 10 66 10 82 -1 6 -3 11 -3 11 2 0 7 154 9 170 3 3 -1 10 -1 15 0 29 7 85 5
85 -3 0 -4 5 -5 11 -1 16 9 149 11 149 1 0 -5 5 -5 11 -1 17 10 149 10 149 0
0 -6 4 -6 10 0 13 13 70 5 70 -10 1 -15 1 -2955 0 -3031 l0 -60 -1920 0
c-1273 0 -1920 3 -1921 10 -3 31 -4 5753 -1 5766 2 9 13 22 25 28 12 6 47 25
78 43 51 30 104 60 279 159 30 18 62 37 70 44 8 6 31 19 50 29 19 9 58 30 85
46 28 16 51 29 52 30 1 0 19 -10 40 -22z"/>
</g>
</svg>
